<svg viewBox="0 0 380 200" xmlns="http://www.w3.org/2000/svg"><g fill-rule="evenodd"><path d="m.5 183.5h379v16h-379z" fill="#bf0a30"/><path d="m.5 167.5h379v16h-379z" fill="#fff"/><path d="m.5 151.5h379v16h-379z" fill="#bf0a30"/><path d="m.5 135.5h379v16h-379z" fill="#fff"/><path d="m.5 120.5h379v15h-379z" fill="#bf0a30"/><path d="m.5 105.5h379v15h-379z" fill="#fff"/><path d="m.5 90.5h379v15h-379z" fill="#bf0a30"/><path d="m.5 75.5h379v15h-379z" fill="#fff"/><path d="m.5 60.5h379v15h-379z" fill="#bf0a30"/><path d="m.5 45.5h379v15h-379z" fill="#fff"/><path d="m.5 30.5h379v15h-379z" fill="#bf0a30"/><path d="m.5 15.5h379v15h-379z" fill="#fff"/><path d="m.5.5h379v15h-379z" fill="#bf0a30"/><path d="m.5.5h152v105h-152z" fill="#002868"/><g fill="#fff"><path d="m100.33 146.67 4.1389-.77244 1.2751-4.0126 2.0136 3.6976 4.2102-.0273-2.8944 3.0577 1.327 3.9958-3.8024-1.8078-3.3901 2.4968.54435-4.175z" transform="matrix(1.0487 .089951 -.08593 1.0977 -85.763 -76.911)"/><path d="m100.33 146.67 4.1389-.77244 1.2751-4.0126 2.0136 3.6976 4.2102-.0273-2.8944 3.0577 1.327 3.9958-3.8024-1.8078-3.3901 2.4968.54435-4.175z" transform="matrix(1.0487 .089951 -.08593 1.0977 -60.763 -76.911)"/><path d="m100.33 146.67 4.1389-.77244 1.2751-4.0126 2.0136 3.6976 4.2102-.0273-2.8944 3.0577 1.327 3.9958-3.8024-1.8078-3.3901 2.4968.54435-4.175z" transform="matrix(1.0487 .089951 -.08593 1.0977 -34.763 -76.911)"/><path d="m100.33 146.67 4.1389-.77244 1.2751-4.0126 2.0136 3.6976 4.2102-.0273-2.8944 3.0577 1.327 3.9958-3.8024-1.8078-3.3901 2.4968.54435-4.175z" transform="matrix(1.0487 .089951 -.08593 1.0977 -9.763 -76.911)"/><path d="m100.33 146.67 4.1389-.77244 1.2751-4.0126 2.0136 3.6976 4.2102-.0273-2.8944 3.0577 1.327 3.9958-3.8024-1.8078-3.3901 2.4968.54435-4.175z" transform="matrix(1.0487 .089951 -.08593 1.0977 15.237 -76.911)"/><path d="m100.33 146.67 4.1389-.77244 1.2751-4.0126 2.0136 3.6976 4.2102-.0273-2.8944 3.0577 1.327 3.9958-3.8024-1.8078-3.3901 2.4968.54435-4.175z" transform="matrix(1.0487 .089951 -.08593 1.0977 41.237 -76.911)"/><path d="m100.33 146.67 4.1389-.77244 1.2751-4.0126 2.0136 3.6976 4.2102-.0273-2.8944 3.0577 1.327 3.9958-3.8024-1.8078-3.3901 2.4968.54435-4.175z" transform="matrix(1.0487 .089951 -.08593 1.0977 -72.763 -86.911)"/><path d="m100.33 146.67 4.1389-.77244 1.2751-4.0126 2.0136 3.6976 4.2102-.0273-2.8944 3.0577 1.327 3.9958-3.8024-1.8078-3.3901 2.4968.54435-4.175z" transform="matrix(1.0487 .089951 -.08593 1.0977 -85.763 -97.911)"/><path d="m100.33 146.67 4.1389-.77244 1.2751-4.0126 2.0136 3.6976 4.2102-.0273-2.8944 3.0577 1.327 3.9958-3.8024-1.8078-3.3901 2.4968.54435-4.175z" transform="matrix(1.0487 .089951 -.08593 1.0977 -72.763 -107.91)"/><path d="m100.33 146.67 4.1389-.77244 1.2751-4.0126 2.0136 3.6976 4.2102-.0273-2.8944 3.0577 1.327 3.9958-3.8024-1.8078-3.3901 2.4968.54435-4.175z" transform="matrix(1.0487 .089951 -.08593 1.0977 -85.763 -118.91)"/><path d="m100.33 146.67 4.1389-.77244 1.2751-4.0126 2.0136 3.6976 4.2102-.0273-2.8944 3.0577 1.327 3.9958-3.8024-1.8078-3.3901 2.4968.54435-4.175z" transform="matrix(1.0487 .089951 -.08593 1.0977 -72.763 -128.91)"/><path d="m100.33 146.67 4.1389-.77244 1.2751-4.0126 2.0136 3.6976 4.2102-.0273-2.8944 3.0577 1.327 3.9958-3.8024-1.8078-3.3901 2.4968.54435-4.175z" transform="matrix(1.0487 .089951 -.08593 1.0977 -85.763 -139.91)"/><path d="m100.33 146.67 4.1389-.77244 1.2751-4.0126 2.0136 3.6976 4.2102-.0273-2.8944 3.0577 1.327 3.9958-3.8024-1.8078-3.3901 2.4968.54435-4.175z" transform="matrix(1.0487 .089951 -.08593 1.0977 -72.763 -149.91)"/><path d="m100.33 146.67 4.1389-.77244 1.2751-4.0126 2.0136 3.6976 4.2102-.0273-2.8944 3.0577 1.327 3.9958-3.8024-1.8078-3.3901 2.4968.54435-4.175z" transform="matrix(1.0487 .089951 -.08593 1.0977 -85.763 -160.91)"/><path d="m100.33 146.67 4.1389-.77244 1.2751-4.0126 2.0136 3.6976 4.2102-.0273-2.8944 3.0577 1.327 3.9958-3.8024-1.8078-3.3901 2.4968.54435-4.175z" transform="matrix(1.0487 .089951 -.08593 1.0977 -47.763 -86.911)"/><path d="m100.33 146.67 4.1389-.77244 1.2751-4.0126 2.0136 3.6976 4.2102-.0273-2.8944 3.0577 1.327 3.9958-3.8024-1.8078-3.3901 2.4968.54435-4.175z" transform="matrix(1.0487 .089951 -.08593 1.0977 -60.763 -97.911)"/><path d="m100.33 146.67 4.1389-.77244 1.2751-4.0126 2.0136 3.6976 4.2102-.0273-2.8944 3.0577 1.327 3.9958-3.8024-1.8078-3.3901 2.4968.54435-4.175z" transform="matrix(1.0487 .089951 -.08593 1.0977 -47.763 -107.91)"/><path d="m100.33 146.67 4.1389-.77244 1.2751-4.0126 2.0136 3.6976 4.2102-.0273-2.8944 3.0577 1.327 3.9958-3.8024-1.8078-3.3901 2.4968.54435-4.175z" transform="matrix(1.0487 .089951 -.08593 1.0977 -60.763 -118.91)"/><path d="m100.33 146.67 4.1389-.77244 1.2751-4.0126 2.0136 3.6976 4.2102-.0273-2.8944 3.0577 1.327 3.9958-3.8024-1.8078-3.3901 2.4968.54435-4.175z" transform="matrix(1.0487 .089951 -.08593 1.0977 -47.763 -128.91)"/><path d="m100.33 146.67 4.1389-.77244 1.2751-4.0126 2.0136 3.6976 4.2102-.0273-2.8944 3.0577 1.327 3.9958-3.8024-1.8078-3.3901 2.4968.54435-4.175z" transform="matrix(1.0487 .089951 -.08593 1.0977 -60.763 -139.91)"/><path d="m100.33 146.67 4.1389-.77244 1.2751-4.0126 2.0136 3.6976 4.2102-.0273-2.8944 3.0577 1.327 3.9958-3.8024-1.8078-3.3901 2.4968.54435-4.175z" transform="matrix(1.0487 .089951 -.08593 1.0977 -47.763 -149.91)"/><path d="m100.33 146.67 4.1389-.77244 1.2751-4.0126 2.0136 3.6976 4.2102-.0273-2.8944 3.0577 1.327 3.9958-3.8024-1.8078-3.3901 2.4968.54435-4.175z" transform="matrix(1.0487 .089951 -.08593 1.0977 -60.763 -160.91)"/><path d="m100.33 146.67 4.1389-.77244 1.2751-4.0126 2.0136 3.6976 4.2102-.0273-2.8944 3.0577 1.327 3.9958-3.8024-1.8078-3.3901 2.4968.54435-4.175z" transform="matrix(1.0487 .089951 -.08593 1.0977 -22.763 -86.911)"/><path d="m100.33 146.67 4.1389-.77244 1.2751-4.0126 2.0136 3.6976 4.2102-.0273-2.8944 3.0577 1.327 3.9958-3.8024-1.8078-3.3901 2.4968.54435-4.175z" transform="matrix(1.0487 .089951 -.08593 1.0977 -34.763 -97.911)"/><path d="m100.33 146.67 4.1389-.77244 1.2751-4.0126 2.0136 3.6976 4.2102-.0273-2.8944 3.0577 1.327 3.9958-3.8024-1.8078-3.3901 2.4968.54435-4.175z" transform="matrix(1.0487 .089951 -.08593 1.0977 15.237 -97.911)"/><path d="m100.33 146.67 4.1389-.77244 1.2751-4.0126 2.0136 3.6976 4.2102-.0273-2.8944 3.0577 1.327 3.9958-3.8024-1.8078-3.3901 2.4968.54435-4.175z" transform="matrix(1.0487 .089951 -.08593 1.0977 -9.763 -97.911)"/><path d="m100.33 146.67 4.1389-.77244 1.2751-4.0126 2.0136 3.6976 4.2102-.0273-2.8944 3.0577 1.327 3.9958-3.8024-1.8078-3.3901 2.4968.54435-4.175z" transform="matrix(1.0487 .089951 -.08593 1.0977 28.237 -86.911)"/><path d="m100.33 146.67 4.1389-.77244 1.2751-4.0126 2.0136 3.6976 4.2102-.0273-2.8944 3.0577 1.327 3.9958-3.8024-1.8078-3.3901 2.4968.54435-4.175z" transform="matrix(1.0487 .089951 -.08593 1.0977 3.2366 -86.911)"/><path d="m100.33 146.67 4.1389-.77244 1.2751-4.0126 2.0136 3.6976 4.2102-.0273-2.8944 3.0577 1.327 3.9958-3.8024-1.8078-3.3901 2.4968.54435-4.175z" transform="matrix(1.0487 .089951 -.08593 1.0977 -34.763 -160.91)"/><path d="m100.33 146.67 4.1389-.77244 1.2751-4.0126 2.0136 3.6976 4.2102-.0273-2.8944 3.0577 1.327 3.9958-3.8024-1.8078-3.3901 2.4968.54435-4.175z" transform="matrix(1.0487 .089951 -.08593 1.0977 -22.763 -149.91)"/><path d="m100.33 146.67 4.1389-.77244 1.2751-4.0126 2.0136 3.6976 4.2102-.0273-2.8944 3.0577 1.327 3.9958-3.8024-1.8078-3.3901 2.4968.54435-4.175z" transform="matrix(1.0487 .089951 -.08593 1.0977 -34.763 -139.91)"/><path d="m100.33 146.67 4.1389-.77244 1.2751-4.0126 2.0136 3.6976 4.2102-.0273-2.8944 3.0577 1.327 3.9958-3.8024-1.8078-3.3901 2.4968.54435-4.175z" transform="matrix(1.0487 .089951 -.08593 1.0977 -22.763 -128.91)"/><path d="m100.33 146.67 4.1389-.77244 1.2751-4.0126 2.0136 3.6976 4.2102-.0273-2.8944 3.0577 1.327 3.9958-3.8024-1.8078-3.3901 2.4968.54435-4.175z" transform="matrix(1.0487 .089951 -.08593 1.0977 -34.763 -118.91)"/><path d="m100.33 146.67 4.1389-.77244 1.2751-4.0126 2.0136 3.6976 4.2102-.0273-2.8944 3.0577 1.327 3.9958-3.8024-1.8078-3.3901 2.4968.54435-4.175z" transform="matrix(1.0487 .089951 -.08593 1.0977 -22.763 -107.91)"/><path d="m100.33 146.67 4.1389-.77244 1.2751-4.0126 2.0136 3.6976 4.2102-.0273-2.8944 3.0577 1.327 3.9958-3.8024-1.8078-3.3901 2.4968.54435-4.175z" transform="matrix(1.0487 .089951 -.08593 1.0977 41.237 -97.911)"/><path d="m100.33 146.67 4.1389-.77244 1.2751-4.0126 2.0136 3.6976 4.2102-.0273-2.8944 3.0577 1.327 3.9958-3.8024-1.8078-3.3901 2.4968.54435-4.175z" transform="matrix(1.0487 .089951 -.08593 1.0977 -9.763 -118.91)"/><path d="m100.33 146.67 4.1389-.77244 1.2751-4.0126 2.0136 3.6976 4.2102-.0273-2.8944 3.0577 1.327 3.9958-3.8024-1.8078-3.3901 2.4968.54435-4.175z" transform="matrix(1.0487 .089951 -.08593 1.0977 -9.763 -160.91)"/><path d="m100.33 146.67 4.1389-.77244 1.2751-4.0126 2.0136 3.6976 4.2102-.0273-2.8944 3.0577 1.327 3.9958-3.8024-1.8078-3.3901 2.4968.54435-4.175z" transform="matrix(1.0487 .089951 -.08593 1.0977 -9.763 -139.91)"/><path d="m100.33 146.67 4.1389-.77244 1.2751-4.0126 2.0136 3.6976 4.2102-.0273-2.8944 3.0577 1.327 3.9958-3.8024-1.8078-3.3901 2.4968.54435-4.175z" transform="matrix(1.0487 .089951 -.08593 1.0977 28.237 -107.91)"/><path d="m100.33 146.67 4.1389-.77244 1.2751-4.0126 2.0136 3.6976 4.2102-.0273-2.8944 3.0577 1.327 3.9958-3.8024-1.8078-3.3901 2.4968.54435-4.175z" transform="matrix(1.0487 .089951 -.08593 1.0977 3.2366 -107.91)"/><path d="m100.33 146.67 4.1389-.77244 1.2751-4.0126 2.0136 3.6976 4.2102-.0273-2.8944 3.0577 1.327 3.9958-3.8024-1.8078-3.3901 2.4968.54435-4.175z" transform="matrix(1.0487 .089951 -.08593 1.0977 3.2366 -149.91)"/><path d="m100.33 146.67 4.1389-.77244 1.2751-4.0126 2.0136 3.6976 4.2102-.0273-2.8944 3.0577 1.327 3.9958-3.8024-1.8078-3.3901 2.4968.54435-4.175z" transform="matrix(1.0487 .089951 -.08593 1.0977 3.2366 -128.91)"/><path d="m100.33 146.67 4.1389-.77244 1.2751-4.0126 2.0136 3.6976 4.2102-.0273-2.8944 3.0577 1.327 3.9958-3.8024-1.8078-3.3901 2.4968.54435-4.175z" transform="matrix(1.0487 .089951 -.08593 1.0977 41.237 -118.91)"/><path d="m100.33 146.67 4.1389-.77244 1.2751-4.0126 2.0136 3.6976 4.2102-.0273-2.8944 3.0577 1.327 3.9958-3.8024-1.8078-3.3901 2.4968.54435-4.175z" transform="matrix(1.0487 .089951 -.08593 1.0977 15.237 -118.91)"/><path d="m100.33 146.67 4.1389-.77244 1.2751-4.0126 2.0136 3.6976 4.2102-.0273-2.8944 3.0577 1.327 3.9958-3.8024-1.8078-3.3901 2.4968.54435-4.175z" transform="matrix(1.0487 .089951 -.08593 1.0977 15.237 -160.91)"/><path d="m100.33 146.67 4.1389-.77244 1.2751-4.0126 2.0136 3.6976 4.2102-.0273-2.8944 3.0577 1.327 3.9958-3.8024-1.8078-3.3901 2.4968.54435-4.175z" transform="matrix(1.0487 .089951 -.08593 1.0977 15.237 -139.91)"/><path d="m100.33 146.67 4.1389-.77244 1.2751-4.0126 2.0136 3.6976 4.2102-.0273-2.8944 3.0577 1.327 3.9958-3.8024-1.8078-3.3901 2.4968.54435-4.175z" transform="matrix(1.0487 .089951 -.08593 1.0977 41.237 -160.91)"/><path d="m100.33 146.67 4.1389-.77244 1.2751-4.0126 2.0136 3.6976 4.2102-.0273-2.8944 3.0577 1.327 3.9958-3.8024-1.8078-3.3901 2.4968.54435-4.175z" transform="matrix(1.0487 .089951 -.08593 1.0977 28.237 -149.91)"/><path d="m100.33 146.67 4.1389-.77244 1.2751-4.0126 2.0136 3.6976 4.2102-.0273-2.8944 3.0577 1.327 3.9958-3.8024-1.8078-3.3901 2.4968.54435-4.175z" transform="matrix(1.0487 .089951 -.08593 1.0977 41.237 -139.91)"/><path d="m100.33 146.67 4.1389-.77244 1.2751-4.0126 2.0136 3.6976 4.2102-.0273-2.8944 3.0577 1.327 3.9958-3.8024-1.8078-3.3901 2.4968.54435-4.175z" transform="matrix(1.0487 .089951 -.08593 1.0977 28.237 -128.91)"/></g></g><g transform="translate(.5 -.5)"><path d="m-.44933 200.45 381.03-198.61-.89 199.06z" fill="#fff"/><g fill="#00247d"><path d="m220.56 200.2-.31953-72.639 158.65.15886.22467 72.321z"/><path d="m379.01 1.3952-128.96 68.298h128.73z"/><path d="m-.00000001 200.22 141.54-73.69 19.771.22467-.44933 73.69z"/></g><g><g fill="#fff"><path d="m379.85 180.2-.41083 19.538-33.127 2.0605-130.02-68.203 1.4831-9.5152 57.668 1.5727z"/><path d="m380.13.49656-133.45 70.994 41.339.89866 91.439-48.528z"/><path d="m-.44933 199.55 148.59-76.35 15.232.58094.0545 14.497-116.63 61.72z"/></g><g fill="#cf142b"><path d="m-.674 199.78 146.56-75.53 15.425.0545-.44933 7.8474-129.42 67.85z"/><path d="m238.15 125.41 28.757.89866 112.33 60.21-.44933 13.031z"/></g></g><g fill="#cf142b"><path d="m378.97 116.66-218.89-.22466 72.581-37.175 146.34.29047z"/><path d="m209.21 199.54.44934-107.53-37.86 19.142.0771 88.803z"/></g></g><path d="m.5.5h379v199h-379z" fill="none" stroke="#000"/></svg>