<svg height="640.00079" viewBox="0 0 960.00004 640.00079" width="960.00006" xmlns="http://www.w3.org/2000/svg" xmlns:xlink="http://www.w3.org/1999/xlink"><linearGradient id="a"><stop offset="0" stop-opacity="0"/><stop offset="1"/></linearGradient><linearGradient id="b"><stop offset="0" stop-opacity="0"/><stop offset=".5" stop-opacity="0"/><stop offset="1"/></linearGradient><radialGradient id="c" cx="1070" cy="700.00079" gradientTransform="matrix(-1 0 0 1 1830 -99.999203)" gradientUnits="userSpaceOnUse" r="40" xlink:href="#b"/><linearGradient id="d" gradientUnits="userSpaceOnUse" x1="780" x2="800" xlink:href="#a" y1="373.3338" y2="373.3338"/><linearGradient id="e" gradientUnits="userSpaceOnUse" x1="410" x2="410" xlink:href="#a" y1="620.00079" y2="640.00079"/><radialGradient id="f" cx="40" cy="600.00159" gradientUnits="userSpaceOnUse" r="40" xlink:href="#b"/><linearGradient id="g" gradientUnits="userSpaceOnUse" x1="-20" x2="0" xlink:href="#a" y1="373.3338" y2="373.3338"/><linearGradient id="h" gradientUnits="userSpaceOnUse" x1="410" x2="410" xlink:href="#a" y1="-126.66678" y2="-106.66678"/><radialGradient id="i" cx="1070" cy="700.00079" gradientTransform="matrix(-1 0 0 -1 1830 846.66678)" gradientUnits="userSpaceOnUse" r="40" xlink:href="#b"/><radialGradient id="j" cx="1070" cy="700.00079" gradientTransform="matrix(1 0 0 -1 -1030 846.66678)" gradientUnits="userSpaceOnUse" r="40" xlink:href="#b"/><linearGradient id="k" gradientTransform="matrix(1 0 0 1.0068041 -1000 4.218536)" gradientUnits="userSpaceOnUse" x1="2050" x2="2560" y1="-120.00079" y2="-630.00079"><stop offset="0" stop-color="#fff"/><stop offset="1" stop-color="#fff" stop-opacity="0"/></linearGradient><filter id="l" color-interpolation-filters="sRGB"><feGaussianBlur result="blur" stdDeviation="2 2"/></filter><clipPath id="m"><rect height="6.000007" ry=".45" transform="scale(1 -1)" width="9" y="-6"/></clipPath><rect filter="url(#l)" height="533.33398" ry="40" transform="matrix(1 0 0 -1 1080 -53.333401)" width="800" x="-1000" y="-640.00079"/><g clip-path="url(#m)" transform="matrix(88.888889 0 0 88.888889 80 52.378834)"><path d="m0 0h9v3h-9z" fill="#fff"/><path d="m0 3h9v3h-9z" fill="#d52b1e"/><path d="m0 2h9v2h-9z" fill="#0039a6"/></g><g transform="translate(80 -54.288626)"><path d="m800 600.00079a40 40 0 0 1 -40 40v-20a20 20 0 0 0 20-20z" fill="url(#c)" opacity=".603"/><path d="m780 146.66679h20v453.33401h-20z" fill="url(#d)" opacity=".603"/><path d="m40 620.00079h720v20h-720z" fill="url(#e)" opacity=".603"/><path d="m0 600.00079a40 40 0 0 0 40 40v-20a20 20 0 0 1 -20-20z" fill="url(#f)" opacity=".603"/><path d="m-20 146.66679h20v453.33401h-20z" fill="url(#g)" opacity=".603" transform="scale(-1 1)"/><path d="m40-126.66679h720v20h-720z" fill="url(#h)" opacity=".603" transform="scale(1 -1)"/><path d="m800 146.66679a40 40 0 0 0 -40-40v20a20 20 0 0 1 20 20z" fill="url(#i)" opacity=".603"/><path d="m0 146.66679a40 40 0 0 1 40-40v20a20 20 0 0 0 -20 20z" fill="url(#j)" opacity=".603"/></g><rect fill="url(#k)" height="493.33401" opacity=".3" ry="20" transform="matrix(1 0 0 -1 -920 -54.288626)" width="760" x="1020" y="-620.00079"/></svg>