<svg enable-background="new 0 0 1700 1200" viewBox="0 0 1700 1200" xmlns="http://www.w3.org/2000/svg"><g fill="#003037"><path d="m288.9 825.4c8 0 12.6-.5 22.7-2.6l2.5 16.7c-7.8 2.1-16.5 3.1-25.2 3.1-38.9 0-50-23.8-50-51.6.4-27.1 17-50 49.9-50 8.7 0 16.1 1 25.2 3.3l-3.4 16.5c-9.6-2.1-15.3-2.4-21.3-2.4-20.6.3-30.7 15.3-31.1 32.7 0 17.1 6.6 34.3 30.7 34.3"/><path d="m368.5 825.5c20.4-.2 27-16.3 27-33.9-.2-16-7.1-34-27.2-34-19.5.2-27.2 17.9-27.2 34 0 18.3 8.2 33.9 27.4 33.9m0-84.6c31.9.2 46.1 23.5 46.1 50.7 0 26.6-12.2 50.4-46.3 50.6-33.4-.4-46.1-24-46.1-50.6-.1-27.2 14.3-50.3 46.3-50.7"/><path d="m546.8 840.5v-62.5c0-15.8-6-20.2-16.2-20.2-6.9 0-14.7 3.8-21.8 9.6.4 2.1.5 6.3.5 7.5v65.7h-19.9v-63.2c0-15.8-4.8-19.6-14.9-19.6-6.4 0-15.3 4.2-22.9 9.7v73.1h-19.6v-97.8h19.7v8.3c6-4.7 15.6-10.1 26.1-10.2 13.8-.2 21.8 4.5 26.3 11.8 8.2-7.5 20.2-11.6 29.5-11.8 32.5-.5 33 25 33 35.8v63.9h-19.8z"/><path d="m703 840.5v-62.5c0-15.8-6-20.2-16.2-20.2-6.9 0-14.7 3.8-21.8 9.6.4 2.1.5 6.3.5 7.5v65.7h-19.9v-63.2c0-15.8-4.8-19.6-14.9-19.6-6.4 0-15.3 4.2-22.9 9.7v73.1h-19.7v-97.8h19.7v8.3c6-4.7 15.6-10.1 26.1-10.2 13.8-.2 21.8 4.5 26.3 11.8 8.2-7.5 20.2-11.6 29.5-11.8 32.5-.5 33 25 33 35.8v63.9h-19.7z"/><path d="m758.2 780.2h43.8c-.7-19.8-10.8-23.8-20.2-23.8-15-.2-21.9 9.7-23.6 23.8m56.4 42.4 3 15.8c-8.9 3-21.1 4.3-30.7 4.3-39.4 0-49-25.9-49-51.8s11.7-49.9 44.7-49.9c20.4 0 37.4 12.3 37.6 43.8l-.2 10.3h-62.8c.4 19.1 10.8 30.7 30.5 30.7 7.9.1 16.1-.8 26.9-3.2"/><path d="m892.7 760.6c-5.1-1.2-9.6-1.4-12.8-1.4-12.2-.2-18.6 5.7-23.2 10.4v70.9h-19.7v-97.8h19.7v8.7c5.1-5.2 13-9.7 23.1-9.9 4.1-.2 10.8.5 16.5 2.6z"/><path d="m950.3 825.4c8 0 12.6-.5 22.7-2.6l2.5 16.7c-7.8 2.1-16.5 3.1-25.2 3.1-38.9 0-50-23.8-50-51.6.4-27.1 17-50 49.9-50 8.7 0 16.2 1 25.2 3.3l-3.4 16.5c-9.6-2.1-15.3-2.4-21.3-2.4-20.6.3-30.7 15.3-31 32.7-.1 17.1 6.5 34.3 30.6 34.3"/><path d="m1003.8 780.2h43.8c-.7-19.8-10.8-23.8-20.2-23.8-15-.2-21.9 9.7-23.6 23.8m56.4 42.4 3 15.8c-8.9 3-21.1 4.3-30.7 4.3-39.4 0-49-25.9-49-51.8s11.7-49.9 44.7-49.9c20.4 0 37.4 12.3 37.6 43.8l-.2 10.3h-62.8c.4 19.1 10.8 30.7 30.5 30.7 7.9.1 16.1-.8 26.9-3.2"/><path d="m1132.6 758.7h-27.1v47.4c0 9.9 1.2 16.9 11.5 18.2 5.7.5 11.5 0 17.2-.7l1.2 16.7c-5.9 1-14.2 1.2-17.6 1.2-23.2-.9-31.9-12.5-31.9-30.7v-52.1h-14.4v-13.4l14.4-1.6v-22.7h19.5v21.7h27.1v16z"/><path d="m1189.9 825.5c20.4-.2 27-16.3 27-33.9-.2-16-7.1-34-27.2-34-19.5.2-27.2 17.9-27.2 34 .1 18.3 8.2 33.9 27.4 33.9m0-84.6c31.9.2 46.1 23.5 46.1 50.7 0 26.6-12.2 50.4-46.3 50.6-33.4-.4-46.1-24-46.1-50.6 0-27.2 14.4-50.3 46.3-50.7"/><path d="m1296 825.5c20.4-.2 27-16.3 27-33.9-.2-16-7.1-34-27.2-34-19.5.2-27.2 17.9-27.2 34 .1 18.3 8.3 33.9 27.4 33.9m0-84.6c31.9.2 46.1 23.5 46.1 50.7 0 26.6-12.2 50.4-46.3 50.6-33.4-.4-46.1-24-46.1-50.6 0-27.2 14.4-50.3 46.3-50.7"/><path d="m1357.8 707.8h19v132.7h-19z"/><path d="m1396.8 821.5c11.2 2.8 21.6 4.2 28.2 4.2 7.8 0 15.8-1.6 16.3-10.8.5-9.7-9.8-12.7-21.5-17.5-13.3-5.4-27.7-12.7-27.3-30.7.4-9 5.9-26.8 35.3-25.9 8.9.2 19.5 1.6 28.4 3.8l-3.4 16c-10.5-2.4-18.3-3.5-25.9-3.7-8.5 0-15.1 2.6-15.4 10.4-.2 6.6 5.1 10.1 18.3 15.3 13.3 5.4 32.1 12.3 31.2 32.8-.5 13-9.2 27.3-36 26.9-8.5-.2-22.2-1.2-32.3-4.7z"/></g><path d="m674.4 550.9c-3.1 1.4-5 4.4-5 7.7s1.9 6.3 5 7.7l168.1 77c2.3 1 4.7 1.6 7.1 1.6v-171.9c-2.5 0-5 .5-7.3 1.6z" fill="#ff761c"/><path d="m849.6 473v172c2.6.1 5.2-.5 7.6-1.6l167.6-76.8c3.1-1.4 5-4.4 5-7.7s-2-6.3-5-7.7l-167.9-76.6c-2.3-1.1-4.8-1.6-7.3-1.6" fill="#ff8c1e"/><path d="m669.4 325.9c0 3.4 1.9 6.3 5 7.7l168.1 77c2.3 1 4.7 1.6 7.1 1.6 2.1 0 4.3-.3 6.3-1.1 1.6-.7 1.3-.6 4.7-2.1 17.4-7.9 5.9-2.6 164.2-75.2 3.1-1.4 5-4.4 5-7.7s-2-6.3-5-7.7l-167.9-76.6c-4.6-2.1-10-2.1-14.6 0l-167.9 76.4c-3 1.4-5 4.4-5 7.7" fill="#00c1ad"/><path d="m849.6 421.9v51.1c-2.5 0-5 .5-7.3 1.6l-167.9 76.4c-3.1 1.4-5 4.4-5 7.7v-227-5.7c0 3.3 1.9 6.3 5 7.7l168.1 77c2.3 1 4.7 1.6 7.1 1.6 2.1 0 4.3-.3 6.3-1.1l-.3.1c-5.2 2.4-6 4.7-6 10.6" fill="#d1d1d1"/><g fill="#003037"><path d="m401.8 947.1v-44h7.5v57.4h-7.1l-29.2-44v44h-7.5v-57.4h7.1z"/><path d="m457.7 942.9h-31.3c.5 3.7 2 6.6 4.3 8.8 2.3 2.1 5.1 3.2 8.5 3.2 4.5 0 7.9-1.8 10.2-5.5h7.3c-1.3 3.3-3.6 6.2-6.7 8.5-3.2 2.3-6.8 3.5-10.8 3.5-3.7 0-7-.9-10.1-2.8s-5.5-4.4-7.2-7.7c-1.8-3.3-2.6-7-2.6-11.1 0-4 .9-7.6 2.7-10.9s4.2-5.9 7.3-7.8c3-1.9 6.3-2.8 9.9-2.8s6.8.9 9.7 2.7 5.2 4.3 6.8 7.4 2.5 6.6 2.5 10.4c-.1 1.9-.2 3.2-.5 4.1zm-27-14.7c-2.4 2.3-3.8 5.2-4.4 8.9h24.8c-.4-3.6-1.8-6.6-4-8.9s-4.9-3.4-8.2-3.4c-3 0-5.8 1.1-8.2 3.4z"/><path d="m483.6 939.4 14.3 21.1h-8.3l-10.6-16.1-10.6 16.1h-7.9l14.2-21.1-13.3-20.2h8l9.8 15.3 9.8-15.3h7.8z"/><path d="m512 957.7c-2.3-2.5-3.4-5.8-3.4-10.1v-21.9h-7.1v-6.2h3.1c1.6 0 2.8-.4 3.7-1.3.9-.8 1.3-2.1 1.3-3.6v-6.1h6v10.8h9.3v6.5h-9.3v21.6c0 2.5.6 4.3 1.7 5.5s2.7 1.8 4.8 1.8c1.1 0 2.1-.2 2.9-.6v6.5c-1.5.5-2.9.7-4.3.7-3.6.1-6.5-1.2-8.7-3.6z"/><path d="m562.4 974.2c-2.5-1.2-4.5-2.8-6.1-4.7-1.5-1.9-2.6-4-3.1-6.2h7.1c.7 1.9 1.9 3.4 3.8 4.6 1.9 1.1 4.2 1.7 6.9 1.7 3.4 0 6.2-1 8.2-3s3.1-4.6 3.1-8v-5.5h-.3c-.8 1.3-2.3 2.6-4.5 3.9s-4.7 2-7.5 2c-3.3 0-6.4-.9-9.3-2.7s-5.1-4.2-6.8-7.3-2.5-6.5-2.5-10.3.8-7.3 2.5-10.4 3.9-5.6 6.8-7.3 5.9-2.7 9.3-2.7c2.9 0 5.5.7 7.7 2.1s3.8 2.7 4.6 4h.4l1.6-5.2h5.2v39.4c0 5.3-1.7 9.5-5 12.7s-7.8 4.8-13.3 4.8c-3.3-.1-6.3-.7-8.8-1.9zm14-23.5c1.8-1.2 3.3-2.9 4.4-5s1.6-4.4 1.6-7-.5-5-1.6-7.1-2.6-3.8-4.4-5-3.8-1.8-5.9-1.8-4.1.6-5.9 1.8-3.3 2.9-4.4 5-1.6 4.5-1.6 7.1.5 4.9 1.6 7 2.6 3.8 4.4 5 3.8 1.8 5.9 1.8 4.1-.6 5.9-1.8z"/><path d="m636.7 942.9h-31.3c.5 3.7 2 6.6 4.3 8.8 2.3 2.1 5.1 3.2 8.5 3.2 4.5 0 7.9-1.8 10.2-5.5h7.3c-1.3 3.3-3.6 6.2-6.7 8.5-3.2 2.3-6.8 3.5-10.8 3.5-3.7 0-7-.9-10.1-2.8s-5.5-4.4-7.2-7.7c-1.8-3.3-2.6-7-2.6-11.1 0-4 .9-7.6 2.7-10.9s4.2-5.9 7.3-7.8 6.3-2.8 9.9-2.8 6.8.9 9.7 2.7 5.2 4.3 6.8 7.4 2.5 6.6 2.5 10.4c-.2 1.9-.3 3.2-.5 4.1zm-27-14.7c-2.4 2.3-3.8 5.2-4.4 8.9h24.8c-.4-3.6-1.8-6.6-4-8.9s-4.9-3.4-8.2-3.4c-3.1 0-5.9 1.1-8.2 3.4z"/><path d="m645.5 960.5v-41.2h5.2l1.6 5.2h.4c1-1.5 2.5-2.9 4.6-4.2s4.5-1.9 7.2-1.9c3.2 0 6 .8 8.5 2.3s4.5 3.6 5.9 6.4 2.1 5.9 2.1 9.5v24h-7v-23.8c0-3.6-1-6.4-2.9-8.5s-4.5-3.2-7.5-3.2c-3.2 0-5.8 1.1-7.9 3.2s-3 5-3 8.5v23.8h-7.2z"/><path d="m727.8 942.9h-31.3c.5 3.7 2 6.6 4.3 8.8 2.3 2.1 5.1 3.2 8.5 3.2 4.5 0 7.9-1.8 10.2-5.5h7.3c-1.3 3.3-3.6 6.2-6.7 8.5-3.2 2.3-6.8 3.5-10.8 3.5-3.7 0-7-.9-10.1-2.8s-5.5-4.4-7.2-7.7c-1.8-3.3-2.6-7-2.6-11.1 0-4 .9-7.6 2.7-10.9s4.2-5.9 7.3-7.8 6.3-2.8 9.9-2.8 6.8.9 9.7 2.7 5.2 4.3 6.8 7.4 2.5 6.6 2.5 10.4c-.2 1.9-.3 3.2-.5 4.1zm-27-14.7c-2.4 2.3-3.8 5.2-4.4 8.9h24.8c-.4-3.6-1.8-6.6-4-8.9s-4.9-3.4-8.2-3.4c-3.1 0-5.8 1.1-8.2 3.4z"/><path d="m736.6 960.5v-41.2h5.2l1.6 5.2h.4c1-1.5 2.4-2.9 4.3-4.1 1.9-1.3 4-1.9 6.3-1.9 1.3 0 2.4.1 3.2.3v7.1c-.9-.3-1.9-.4-3.2-.4-3.2 0-5.8 1.1-7.8 3.2s-3 5-3 8.7v23.2h-7z"/><path d="m787 920.3c2.4 1.3 4.3 3.2 5.6 5.7 1.3 2.4 2 5.2 2 8.3v26.2h-5.3l-1.5-5.2h-.4c-1.1 1.5-2.7 2.9-4.8 4.2s-4.6 1.9-7.6 1.9c-2.7 0-5.1-.5-7.2-1.6s-3.7-2.6-4.8-4.5-1.7-4-1.7-6.3c0-2.6.8-4.9 2.3-6.8s3.7-3.5 6.6-4.6c2.8-1.1 6-1.6 9.6-1.6h7.7v-2c0-2.8-.8-5-2.4-6.7s-3.7-2.5-6.4-2.5c-2.5 0-4.4.6-5.8 1.9s-2.3 2.9-2.7 4.8h-7.2c.3-2.4 1.1-4.5 2.4-6.6 1.3-2 3.2-3.6 5.5-4.8s4.9-1.8 7.8-1.8c3.1 0 5.9.7 8.3 2zm-2.7 31.8c2.1-2 3.1-4.5 3.1-7.5v-3.1h-7.2c-3.8 0-6.8.6-8.9 1.9s-3.1 3-3.1 5.2c0 2 .7 3.5 2.1 4.7s3.3 1.8 5.8 1.8c3.4 0 6.2-1 8.2-3z"/><path d="m810.6 957.7c-2.3-2.5-3.4-5.8-3.4-10.1v-21.9h-7.1v-6.2h3.1c1.6 0 2.8-.4 3.7-1.3.9-.8 1.3-2.1 1.3-3.6v-6.1h6v10.8h9.3v6.5h-9.3v21.6c0 2.5.6 4.3 1.7 5.5s2.7 1.8 4.8 1.8c1.1 0 2.1-.2 2.9-.6v6.5c-1.5.5-2.9.7-4.3.7-3.5.1-6.4-1.2-8.7-3.6z"/><path d="m831.4 911.7c-.8-.9-1.3-1.9-1.3-3.2s.4-2.4 1.3-3.2c.8-.8 1.9-1.2 3.2-1.2s2.4.4 3.2 1.2 1.3 1.9 1.3 3.2-.4 2.3-1.3 3.2-1.9 1.3-3.2 1.3-2.4-.4-3.2-1.3zm6.7 48.8h-7.1v-41.2h7.1z"/><path d="m856.5 958.5c-3-1.9-5.4-4.5-7.3-7.8-1.8-3.3-2.7-7-2.7-10.9 0-4 .9-7.6 2.7-10.9s4.2-5.9 7.3-7.8c3-1.9 6.4-2.8 10-2.8s6.9.9 9.9 2.8 5.5 4.5 7.3 7.8 2.7 6.9 2.7 10.9-.9 7.6-2.7 10.9-4.2 5.9-7.3 7.8-6.4 2.8-9.9 2.8c-3.7.1-7-.9-10-2.8zm16.3-5.7c2-1.3 3.5-3 4.7-5.3 1.1-2.3 1.7-4.9 1.7-7.8s-.6-5.5-1.7-7.7-2.7-4-4.7-5.2c-2-1.3-4.1-1.9-6.4-1.9s-4.4.6-6.4 1.9-3.5 3-4.7 5.2-1.8 4.8-1.8 7.7.6 5.5 1.8 7.8 2.7 4 4.7 5.3c1.9 1.3 4.1 1.9 6.4 1.9s4.5-.6 6.4-1.9z"/><path d="m894.9 960.5v-41.2h5.2l1.6 5.2h.4c1-1.5 2.5-2.9 4.6-4.2s4.5-1.9 7.2-1.9c3.2 0 6 .8 8.5 2.3s4.5 3.6 5.9 6.4 2.1 5.9 2.1 9.5v24h-7.1v-23.8c0-3.6-1-6.4-3-8.5s-4.5-3.2-7.5-3.2c-3.2 0-5.9 1.1-7.9 3.2s-3 5-3 8.5v23.8h-7z"/><path d="m969.3 958.5c-3-1.9-5.4-4.5-7.3-7.8-1.8-3.3-2.7-7-2.7-10.9 0-4 .9-7.6 2.7-10.9s4.2-5.9 7.3-7.8c3-1.9 6.4-2.8 10-2.8 3.2 0 6.1.7 8.7 2.2s4.7 3.4 6.4 5.8 2.8 5 3.4 7.8h-7.1c-.8-2.7-2.1-4.9-4.1-6.6-1.9-1.7-4.4-2.6-7.3-2.6-2.3 0-4.4.6-6.4 1.9s-3.5 3-4.7 5.2-1.8 4.8-1.8 7.7.6 5.5 1.8 7.8 2.7 4 4.7 5.3c1.9 1.3 4.1 1.9 6.4 1.9 3 0 5.4-.9 7.3-2.6s3.3-3.9 4.1-6.6h7.1c-.5 2.8-1.7 5.4-3.4 7.8s-3.8 4.3-6.4 5.8-5.5 2.2-8.7 2.2c-3.6.1-6.9-.9-10-2.8z"/><path d="m1013.6 958.5c-3-1.9-5.5-4.5-7.3-7.8s-2.7-7-2.7-10.9c0-4 .9-7.6 2.7-10.9s4.2-5.9 7.3-7.8 6.4-2.8 10-2.8 6.9.9 9.9 2.8c3.1 1.9 5.5 4.5 7.3 7.8s2.7 6.9 2.7 10.9-.9 7.6-2.7 10.9-4.2 5.9-7.3 7.8-6.4 2.8-9.9 2.8c-3.7.1-7-.9-10-2.8zm16.3-5.7c2-1.3 3.5-3 4.7-5.3 1.1-2.3 1.7-4.9 1.7-7.8s-.6-5.5-1.7-7.7-2.7-4-4.7-5.2-4.1-1.9-6.4-1.9-4.4.6-6.4 1.9-3.5 3-4.7 5.2-1.8 4.8-1.8 7.7.6 5.5 1.8 7.8 2.7 4 4.7 5.3c1.9 1.3 4.1 1.9 6.4 1.9s4.4-.6 6.4-1.9z"/><path d="m1100.5 920.4c2.1 1.4 3.8 3.3 5 5.9s1.8 5.6 1.8 9.1v25.1h-7.1v-24.9c0-3.3-.8-5.9-2.3-7.8s-3.6-2.8-6-2.8c-2.5 0-4.5 1-6.2 2.9s-2.5 4.5-2.5 7.7v24.9h-7.1v-24.9c0-3.3-.8-5.9-2.3-7.8-1.6-1.9-3.6-2.8-6-2.8-2.5 0-4.5 1-6.2 2.9s-2.5 4.5-2.5 7.7v24.9h-7.1v-41.2h5.2l1.6 5.2h.4c.9-1.5 2.2-2.9 3.9-4.1 1.7-1.3 3.8-1.9 6.2-1.9 3 0 5.5.8 7.5 2.3s3.4 3.2 4.3 5.1c1.1-1.9 2.7-3.6 4.8-5.1s4.6-2.3 7.5-2.3c2.6-.2 4.9.5 7.1 1.9z"/><path d="m1166.5 920.4c2.1 1.4 3.8 3.3 5 5.9s1.8 5.6 1.8 9.1v25.1h-7.1v-24.9c0-3.3-.8-5.9-2.3-7.8s-3.6-2.8-6-2.8-4.5 1-6.2 2.9-2.5 4.5-2.5 7.7v24.9h-7.1v-24.9c0-3.3-.8-5.9-2.3-7.8s-3.6-2.8-6-2.8-4.5 1-6.2 2.9-2.5 4.5-2.5 7.7v24.9h-7.1v-41.2h5.2l1.6 5.2h.4c.9-1.5 2.2-2.9 3.9-4.1 1.7-1.3 3.8-1.9 6.2-1.9 3 0 5.5.8 7.5 2.3s3.4 3.2 4.3 5.1c1.1-1.9 2.7-3.6 4.8-5.1s4.6-2.3 7.5-2.3c2.6-.2 4.9.5 7.1 1.9z"/><path d="m1220 942.9h-31.3c.5 3.7 2 6.6 4.3 8.8 2.3 2.1 5.1 3.2 8.5 3.2 4.5 0 7.9-1.8 10.2-5.5h7.3c-1.3 3.3-3.6 6.2-6.7 8.5-3.2 2.3-6.8 3.5-10.8 3.5-3.7 0-7-.9-10.1-2.8s-5.5-4.4-7.2-7.7c-1.8-3.3-2.6-7-2.6-11.1 0-4 .9-7.6 2.7-10.9s4.2-5.9 7.3-7.8 6.3-2.8 9.9-2.8 6.8.9 9.7 2.7 5.2 4.3 6.8 7.4 2.5 6.6 2.5 10.4c-.2 1.9-.3 3.2-.5 4.1zm-27-14.7c-2.4 2.3-3.8 5.2-4.4 8.9h24.8c-.4-3.6-1.8-6.6-4-8.9s-4.9-3.4-8.2-3.4c-3.1 0-5.8 1.1-8.2 3.4z"/><path d="m1228.9 960.5v-41.2h5.2l1.6 5.2h.4c1-1.5 2.4-2.9 4.3-4.1 1.9-1.3 4-1.9 6.3-1.9 1.3 0 2.4.1 3.2.3v7.1c-.9-.3-1.9-.4-3.2-.4-3.2 0-5.8 1.1-7.8 3.2s-3 5-3 8.7v23.2h-7z"/><path d="m1263 958.5c-3-1.9-5.5-4.5-7.3-7.8s-2.7-7-2.7-10.9c0-4 .9-7.6 2.7-10.9s4.2-5.9 7.3-7.8 6.4-2.8 10-2.8c3.2 0 6.1.7 8.6 2.2s4.7 3.4 6.4 5.8 2.8 5 3.4 7.8h-7.1c-.8-2.7-2.1-4.9-4.1-6.6-1.9-1.7-4.4-2.6-7.3-2.6-2.3 0-4.4.6-6.4 1.9s-3.5 3-4.7 5.2-1.8 4.8-1.8 7.7.6 5.5 1.8 7.8 2.7 4 4.7 5.3c1.9 1.3 4.1 1.9 6.4 1.9 2.9 0 5.4-.9 7.3-2.6s3.3-3.9 4.1-6.6h7.1c-.5 2.8-1.7 5.4-3.4 7.8s-3.8 4.3-6.4 5.8-5.5 2.2-8.6 2.2c-3.6.1-6.9-.9-10-2.8z"/><path d="m1335.8 942.9h-31.3c.5 3.7 2 6.6 4.3 8.8 2.3 2.1 5.1 3.2 8.5 3.2 4.5 0 7.9-1.8 10.2-5.5h7.3c-1.3 3.3-3.6 6.2-6.7 8.5-3.2 2.3-6.8 3.5-10.8 3.5-3.7 0-7-.9-10.1-2.8s-5.5-4.4-7.2-7.7c-1.8-3.3-2.6-7-2.6-11.1 0-4 .9-7.6 2.7-10.9s4.2-5.9 7.3-7.8 6.3-2.8 9.9-2.8 6.8.9 9.7 2.7 5.2 4.3 6.8 7.4 2.5 6.6 2.5 10.4c-.1 1.9-.3 3.2-.5 4.1zm-27-14.7c-2.4 2.3-3.8 5.2-4.4 8.9h24.8c-.4-3.6-1.8-6.6-4-8.9s-4.9-3.4-8.2-3.4c-3 0-5.8 1.1-8.2 3.4z"/></g></svg>