<?xml version="1.0" encoding="utf-8"?>
<!-- Generator: Adobe Illustrator 25.4.1, SVG Export Plug-In . SVG Version: 6.00 Build 0)  -->
<svg version="1.1" xmlns="http://www.w3.org/2000/svg" xmlns:xlink="http://www.w3.org/1999/xlink" x="0px" y="0px"
	 viewBox="0 0 1700 1200" style="enable-background:new 0 0 1700 1200;" xml:space="preserve">
<style type="text/css">
	.st0{fill:#FFFFFF;}
	.st1{fill:#FF761C;}
	.st2{fill:#FF8C1E;}
	.st3{fill:#00C1AD;}
	.st4{fill:#D1D1D1;}
	.st5{fill:#003037;}
</style>
<g id="Logo_RGB_Claim">
	<g>
		<g>
			<g>
				<g>
					<path class="st5" d="M288.9,825.4c8,0,12.6-0.5,22.7-2.6l2.5,16.7c-7.8,2.1-16.5,3.1-25.2,3.1c-38.9,0-50-23.8-50-51.6
						c0.4-27.1,17-50,49.9-50c8.7,0,16.1,1,25.2,3.3l-3.4,16.5c-9.6-2.1-15.3-2.4-21.3-2.4c-20.6,0.3-30.7,15.3-31.1,32.7
						C258.2,808.2,264.8,825.4,288.9,825.4"/>
				</g>
				<g>
					<path class="st5" d="M368.5,825.5c20.4-0.2,27-16.3,27-33.9c-0.2-16-7.1-34-27.2-34c-19.5,0.2-27.2,17.9-27.2,34
						C341.1,809.9,349.3,825.5,368.5,825.5 M368.5,740.9c31.9,0.2,46.1,23.5,46.1,50.7c0,26.6-12.2,50.4-46.3,50.6
						c-33.4-0.4-46.1-24-46.1-50.6C322.1,764.4,336.5,741.3,368.5,740.9"/>
					<path class="st5" d="M546.8,840.5v-62.5c0-15.8-6-20.2-16.2-20.2c-6.9,0-14.7,3.8-21.8,9.6c0.4,2.1,0.5,6.3,0.5,7.5v65.7h-19.9
						v-63.2c0-15.8-4.8-19.6-14.9-19.6c-6.4,0-15.3,4.2-22.9,9.7v73.1H432v-97.8h19.7v8.3c6-4.7,15.6-10.1,26.1-10.2
						c13.8-0.2,21.8,4.5,26.3,11.8c8.2-7.5,20.2-11.6,29.5-11.8c32.5-0.5,33,25,33,35.8v63.9H546.8z"/>
					<path class="st5" d="M703,840.5v-62.5c0-15.8-6-20.2-16.2-20.2c-6.9,0-14.7,3.8-21.8,9.6c0.4,2.1,0.5,6.3,0.5,7.5v65.7h-19.9
						v-63.2c0-15.8-4.8-19.6-14.9-19.6c-6.4,0-15.3,4.2-22.9,9.7v73.1h-19.7v-97.8h19.7v8.3c6-4.7,15.6-10.1,26.1-10.2
						c13.8-0.2,21.8,4.5,26.3,11.8c8.2-7.5,20.2-11.6,29.5-11.8c32.5-0.5,33,25,33,35.8v63.9H703z"/>
					<path class="st5" d="M758.2,780.2H802c-0.7-19.8-10.8-23.8-20.2-23.8C766.8,756.2,759.9,766.1,758.2,780.2 M814.6,822.6l3,15.8
						c-8.9,3-21.1,4.3-30.7,4.3c-39.4,0-49-25.9-49-51.8c0-25.9,11.7-49.9,44.7-49.9c20.4,0,37.4,12.3,37.6,43.8l-0.2,10.3h-62.8
						c0.4,19.1,10.8,30.7,30.5,30.7C795.6,825.9,803.8,825,814.6,822.6"/>
					<path class="st5" d="M892.7,760.6c-5.1-1.2-9.6-1.4-12.8-1.4c-12.2-0.2-18.6,5.7-23.2,10.4v70.9h-19.7v-97.8h19.7v8.7
						c5.1-5.2,13-9.7,23.1-9.9c4.1-0.2,10.8,0.5,16.5,2.6L892.7,760.6z"/>
					<path class="st5" d="M950.3,825.4c8,0,12.6-0.5,22.7-2.6l2.5,16.7c-7.8,2.1-16.5,3.1-25.2,3.1c-38.9,0-50-23.8-50-51.6
						c0.4-27.1,17-50,49.9-50c8.7,0,16.2,1,25.2,3.3l-3.4,16.5c-9.6-2.1-15.3-2.4-21.3-2.4c-20.6,0.3-30.7,15.3-31,32.7
						C919.6,808.2,926.2,825.4,950.3,825.4"/>
					<path class="st5" d="M1003.8,780.2h43.8c-0.7-19.8-10.8-23.8-20.2-23.8C1012.4,756.2,1005.5,766.1,1003.8,780.2 M1060.2,822.6
						l3,15.8c-8.9,3-21.1,4.3-30.7,4.3c-39.4,0-49-25.9-49-51.8c0-25.9,11.7-49.9,44.7-49.9c20.4,0,37.4,12.3,37.6,43.8l-0.2,10.3
						h-62.8c0.4,19.1,10.8,30.7,30.5,30.7C1041.2,825.9,1049.4,825,1060.2,822.6"/>
					<path class="st5" d="M1132.6,758.7h-27.1v47.4c0,9.9,1.2,16.9,11.5,18.2c5.7,0.5,11.5,0,17.2-0.7l1.2,16.7
						c-5.9,1-14.2,1.2-17.6,1.2c-23.2-0.9-31.9-12.5-31.9-30.7v-52.1h-14.4v-13.4l14.4-1.6V721h19.5v21.7h27.1V758.7z"/>
					<path class="st5" d="M1189.9,825.5c20.4-0.2,27-16.3,27-33.9c-0.2-16-7.1-34-27.2-34c-19.5,0.2-27.2,17.9-27.2,34
						C1162.6,809.9,1170.7,825.5,1189.9,825.5 M1189.9,740.9c31.9,0.2,46.1,23.5,46.1,50.7c0,26.6-12.2,50.4-46.3,50.6
						c-33.4-0.4-46.1-24-46.1-50.6C1143.6,764.4,1158,741.3,1189.9,740.9"/>
					<path class="st5" d="M1296,825.5c20.4-0.2,27-16.3,27-33.9c-0.2-16-7.1-34-27.2-34c-19.5,0.2-27.2,17.9-27.2,34
						C1268.7,809.9,1276.9,825.5,1296,825.5 M1296,740.9c31.9,0.2,46.1,23.5,46.1,50.7c0,26.6-12.2,50.4-46.3,50.6
						c-33.4-0.4-46.1-24-46.1-50.6C1249.7,764.4,1264.1,741.3,1296,740.9"/>
				</g>
				<g>
					<rect x="1357.8" y="707.8" class="st5" width="19" height="132.7"/>
					<path class="st5" d="M1396.8,821.5c11.2,2.8,21.6,4.2,28.2,4.2c7.8,0,15.8-1.6,16.3-10.8c0.5-9.7-9.8-12.7-21.5-17.5
						c-13.3-5.4-27.7-12.7-27.3-30.7c0.4-9,5.9-26.8,35.3-25.9c8.9,0.2,19.5,1.6,28.4,3.8l-3.4,16c-10.5-2.4-18.3-3.5-25.9-3.7
						c-8.5,0-15.1,2.6-15.4,10.4c-0.2,6.6,5.1,10.1,18.3,15.3c13.3,5.4,32.1,12.3,31.2,32.8c-0.5,13-9.2,27.3-36,26.9
						c-8.5-0.2-22.2-1.2-32.3-4.7L1396.8,821.5z"/>
				</g>
				<g>
					<g>
						<path class="st1" d="M674.4,550.9c-3.1,1.4-5,4.4-5,7.7c0,3.3,1.9,6.3,5,7.7l168.1,77c2.3,1,4.7,1.6,7.1,1.6V473
							c-2.5,0-5,0.5-7.3,1.6L674.4,550.9z"/>
					</g>
					<g>
						<path class="st2" d="M849.6,473v172c2.6,0.1,5.2-0.5,7.6-1.6l167.6-76.8c3.1-1.4,5-4.4,5-7.7c0-3.3-2-6.3-5-7.7l-167.9-76.6
							C854.6,473.5,852.1,473,849.6,473"/>
						<path class="st3" d="M669.4,325.9c0,3.4,1.9,6.3,5,7.7l168.1,77c2.3,1,4.7,1.6,7.1,1.6c2.1,0,4.3-0.3,6.3-1.1
							c1.6-0.7,1.3-0.6,4.7-2.1c17.4-7.9,5.9-2.6,164.2-75.2c3.1-1.4,5-4.4,5-7.7c0-3.3-2-6.3-5-7.7l-167.9-76.6
							c-4.6-2.1-10-2.1-14.6,0l-167.9,76.4C671.4,319.6,669.4,322.6,669.4,325.9"/>
					</g>
					<path class="st4" d="M849.6,421.9V473c-2.5,0-5,0.5-7.3,1.6l-167.9,76.4c-3.1,1.4-5,4.4-5,7.7l0-227v-5.7c0,3.3,1.9,6.3,5,7.7
						l168.1,77c2.3,1,4.7,1.6,7.1,1.6c2.1,0,4.3-0.3,6.3-1.1l-0.3,0.1C850.4,413.7,849.6,416,849.6,421.9"/>
				</g>
			</g>
		</g>
		<g>
			<path class="st5" d="M401.8,947.1v-44h7.5v57.4h-7.1l-29.2-44v44h-7.5v-57.4h7.1L401.8,947.1z"/>
			<path class="st5" d="M457.7,942.9h-31.3c0.5,3.7,2,6.6,4.3,8.8c2.3,2.1,5.1,3.2,8.5,3.2c4.5,0,7.9-1.8,10.2-5.5h7.3
				c-1.3,3.3-3.6,6.2-6.7,8.5c-3.2,2.3-6.8,3.5-10.8,3.5c-3.7,0-7-0.9-10.1-2.8s-5.5-4.4-7.2-7.7c-1.8-3.3-2.6-7-2.6-11.1
				c0-4,0.9-7.6,2.7-10.9s4.2-5.9,7.3-7.8c3-1.9,6.3-2.8,9.9-2.8s6.8,0.9,9.7,2.7c2.9,1.8,5.2,4.3,6.8,7.4s2.5,6.6,2.5,10.4
				C458.1,940.7,458,942,457.7,942.9z M430.7,928.2c-2.4,2.3-3.8,5.2-4.4,8.9h24.8c-0.4-3.6-1.8-6.6-4-8.9s-4.9-3.4-8.2-3.4
				C435.9,924.8,433.1,925.9,430.7,928.2z"/>
			<path class="st5" d="M483.6,939.4l14.3,21.1h-8.3L479,944.4l-10.6,16.1h-7.9l14.2-21.1l-13.3-20.2h8l9.8,15.3l9.8-15.3h7.8
				L483.6,939.4z"/>
			<path class="st5" d="M512,957.7c-2.3-2.5-3.4-5.8-3.4-10.1v-21.9h-7.1v-6.2h3.1c1.6,0,2.8-0.4,3.7-1.3c0.9-0.8,1.3-2.1,1.3-3.6
				v-6.1h6v10.8h9.3v6.5h-9.3v21.6c0,2.5,0.6,4.3,1.7,5.5c1.1,1.2,2.7,1.8,4.8,1.8c1.1,0,2.1-0.2,2.9-0.6v6.5
				c-1.5,0.5-2.9,0.7-4.3,0.7C517.1,961.4,514.2,960.1,512,957.7z"/>
			<path class="st5" d="M562.4,974.2c-2.5-1.2-4.5-2.8-6.1-4.7c-1.5-1.9-2.6-4-3.1-6.2h7.1c0.7,1.9,1.9,3.4,3.8,4.6
				c1.9,1.1,4.2,1.7,6.9,1.7c3.4,0,6.2-1,8.2-3s3.1-4.6,3.1-8v-5.5H582c-0.8,1.3-2.3,2.6-4.5,3.9c-2.2,1.3-4.7,2-7.5,2
				c-3.3,0-6.4-0.9-9.3-2.7c-2.9-1.8-5.1-4.2-6.8-7.3c-1.7-3.1-2.5-6.5-2.5-10.3c0-3.8,0.8-7.3,2.5-10.4s3.9-5.6,6.8-7.3
				s5.9-2.7,9.3-2.7c2.9,0,5.5,0.7,7.7,2.1s3.8,2.7,4.6,4h0.4l1.6-5.2h5.2v39.4c0,5.3-1.7,9.5-5,12.7c-3.3,3.2-7.8,4.8-13.3,4.8
				C567.9,976,564.9,975.4,562.4,974.2z M576.4,950.7c1.8-1.2,3.3-2.9,4.4-5s1.6-4.4,1.6-7c0-2.6-0.5-5-1.6-7.1
				c-1.1-2.1-2.6-3.8-4.4-5s-3.8-1.8-5.9-1.8s-4.1,0.6-5.9,1.8s-3.3,2.9-4.4,5c-1.1,2.1-1.6,4.5-1.6,7.1c0,2.6,0.5,4.9,1.6,7
				s2.6,3.8,4.4,5s3.8,1.8,5.9,1.8S574.6,951.9,576.4,950.7z"/>
			<path class="st5" d="M636.7,942.9h-31.3c0.5,3.7,2,6.6,4.3,8.8c2.3,2.1,5.1,3.2,8.5,3.2c4.5,0,7.9-1.8,10.2-5.5h7.3
				c-1.3,3.3-3.6,6.2-6.7,8.5c-3.2,2.3-6.8,3.5-10.8,3.5c-3.7,0-7-0.9-10.1-2.8c-3.1-1.9-5.5-4.4-7.2-7.7c-1.8-3.3-2.6-7-2.6-11.1
				c0-4,0.9-7.6,2.7-10.9s4.2-5.9,7.3-7.8s6.3-2.8,9.9-2.8c3.6,0,6.8,0.9,9.7,2.7c2.9,1.8,5.2,4.3,6.8,7.4s2.5,6.6,2.5,10.4
				C637,940.7,636.9,942,636.7,942.9z M609.7,928.2c-2.4,2.3-3.8,5.2-4.4,8.9h24.8c-0.4-3.6-1.8-6.6-4-8.9s-4.9-3.4-8.2-3.4
				C614.8,924.8,612,925.9,609.7,928.2z"/>
			<path class="st5" d="M645.5,960.5v-41.2h5.2l1.6,5.2h0.4c1-1.5,2.5-2.9,4.6-4.2s4.5-1.9,7.2-1.9c3.2,0,6,0.8,8.5,2.3
				c2.5,1.5,4.5,3.6,5.9,6.4s2.1,5.9,2.1,9.5v24H674v-23.8c0-3.6-1-6.4-2.9-8.5s-4.5-3.2-7.5-3.2c-3.2,0-5.8,1.1-7.9,3.2s-3,5-3,8.5
				v23.8H645.5z"/>
			<path class="st5" d="M727.8,942.9h-31.3c0.5,3.7,2,6.6,4.3,8.8c2.3,2.1,5.1,3.2,8.5,3.2c4.5,0,7.9-1.8,10.2-5.5h7.3
				c-1.3,3.3-3.6,6.2-6.7,8.5c-3.2,2.3-6.8,3.5-10.8,3.5c-3.7,0-7-0.9-10.1-2.8c-3.1-1.9-5.5-4.4-7.2-7.7c-1.8-3.3-2.6-7-2.6-11.1
				c0-4,0.9-7.6,2.7-10.9s4.2-5.9,7.3-7.8s6.3-2.8,9.9-2.8c3.6,0,6.8,0.9,9.7,2.7c2.9,1.8,5.2,4.3,6.8,7.4s2.5,6.6,2.5,10.4
				C728.1,940.7,728,942,727.8,942.9z M700.8,928.2c-2.4,2.3-3.8,5.2-4.4,8.9h24.8c-0.4-3.6-1.8-6.6-4-8.9s-4.9-3.4-8.2-3.4
				C705.9,924.8,703.2,925.9,700.8,928.2z"/>
			<path class="st5" d="M736.6,960.5v-41.2h5.2l1.6,5.2h0.4c1-1.5,2.4-2.9,4.3-4.1c1.9-1.3,4-1.9,6.3-1.9c1.3,0,2.4,0.1,3.2,0.3v7.1
				c-0.9-0.3-1.9-0.4-3.2-0.4c-3.2,0-5.8,1.1-7.8,3.2c-2,2.1-3,5-3,8.7v23.2H736.6z"/>
			<path class="st5" d="M787,920.3c2.4,1.3,4.3,3.2,5.6,5.7c1.3,2.4,2,5.2,2,8.3v26.2h-5.3l-1.5-5.2h-0.4c-1.1,1.5-2.7,2.9-4.8,4.2
				s-4.6,1.9-7.6,1.9c-2.7,0-5.1-0.5-7.2-1.6s-3.7-2.6-4.8-4.5s-1.7-4-1.7-6.3c0-2.6,0.8-4.9,2.3-6.8s3.7-3.5,6.6-4.6
				c2.8-1.1,6-1.6,9.6-1.6h7.7V934c0-2.8-0.8-5-2.4-6.7c-1.6-1.7-3.7-2.5-6.4-2.5c-2.5,0-4.4,0.6-5.8,1.9s-2.3,2.9-2.7,4.8H763
				c0.3-2.4,1.1-4.5,2.4-6.6c1.3-2,3.2-3.6,5.5-4.8s4.9-1.8,7.8-1.8C781.8,918.3,784.6,919,787,920.3z M784.3,952.1
				c2.1-2,3.1-4.5,3.1-7.5v-3.1h-7.2c-3.8,0-6.8,0.6-8.9,1.9c-2.1,1.3-3.1,3-3.1,5.2c0,2,0.7,3.5,2.1,4.7s3.3,1.8,5.8,1.8
				C779.5,955.1,782.3,954.1,784.3,952.1z"/>
			<path class="st5" d="M810.6,957.7c-2.3-2.5-3.4-5.8-3.4-10.1v-21.9h-7.1v-6.2h3.1c1.6,0,2.8-0.4,3.7-1.3c0.9-0.8,1.3-2.1,1.3-3.6
				v-6.1h6v10.8h9.3v6.5h-9.3v21.6c0,2.5,0.6,4.3,1.7,5.5c1.1,1.2,2.7,1.8,4.8,1.8c1.1,0,2.1-0.2,2.9-0.6v6.5
				c-1.5,0.5-2.9,0.7-4.3,0.7C815.8,961.4,812.9,960.1,810.6,957.7z"/>
			<path class="st5" d="M831.4,911.7c-0.8-0.9-1.3-1.9-1.3-3.2c0-1.3,0.4-2.4,1.3-3.2c0.8-0.8,1.9-1.2,3.2-1.2
				c1.3,0,2.4,0.4,3.2,1.2s1.3,1.9,1.3,3.2c0,1.3-0.4,2.3-1.3,3.2c-0.9,0.9-1.9,1.3-3.2,1.3S832.2,912.6,831.4,911.7z M838.1,960.5
				H831v-41.2h7.1V960.5z"/>
			<path class="st5" d="M856.5,958.5c-3-1.9-5.4-4.5-7.3-7.8c-1.8-3.3-2.7-7-2.7-10.9c0-4,0.9-7.6,2.7-10.9s4.2-5.9,7.3-7.8
				c3-1.9,6.4-2.8,10-2.8c3.6,0,6.9,0.9,9.9,2.8s5.5,4.5,7.3,7.8c1.8,3.3,2.7,6.9,2.7,10.9c0,4-0.9,7.6-2.7,10.9
				c-1.8,3.3-4.2,5.9-7.3,7.8c-3.1,1.9-6.4,2.8-9.9,2.8C862.8,961.4,859.5,960.4,856.5,958.5z M872.8,952.8c2-1.3,3.5-3,4.7-5.3
				c1.1-2.3,1.7-4.9,1.7-7.8s-0.6-5.5-1.7-7.7s-2.7-4-4.7-5.2c-2-1.3-4.1-1.9-6.4-1.9s-4.4,0.6-6.4,1.9c-2,1.3-3.5,3-4.7,5.2
				c-1.2,2.2-1.8,4.8-1.8,7.7s0.6,5.5,1.8,7.8c1.2,2.3,2.7,4,4.7,5.3c1.9,1.3,4.1,1.9,6.4,1.9C868.7,954.7,870.9,954.1,872.8,952.8z
				"/>
			<path class="st5" d="M894.9,960.5v-41.2h5.2l1.6,5.2h0.4c1-1.5,2.5-2.9,4.6-4.2c2.1-1.3,4.5-1.9,7.2-1.9c3.2,0,6,0.8,8.5,2.3
				s4.5,3.6,5.9,6.4s2.1,5.9,2.1,9.5v24h-7.1v-23.8c0-3.6-1-6.4-3-8.5s-4.5-3.2-7.5-3.2c-3.2,0-5.9,1.1-7.9,3.2c-2,2.1-3,5-3,8.5
				v23.8H894.9z"/>
			<path class="st5" d="M969.3,958.5c-3-1.9-5.4-4.5-7.3-7.8c-1.8-3.3-2.7-7-2.7-10.9c0-4,0.9-7.6,2.7-10.9s4.2-5.9,7.3-7.8
				c3-1.9,6.4-2.8,10-2.8c3.2,0,6.1,0.7,8.7,2.2c2.6,1.5,4.7,3.4,6.4,5.8c1.7,2.4,2.8,5,3.4,7.8h-7.1c-0.8-2.7-2.1-4.9-4.1-6.6
				c-1.9-1.7-4.4-2.6-7.3-2.6c-2.3,0-4.4,0.6-6.4,1.9c-2,1.3-3.5,3-4.7,5.2c-1.2,2.2-1.8,4.8-1.8,7.7s0.6,5.5,1.8,7.8
				c1.2,2.3,2.7,4,4.7,5.3c1.9,1.3,4.1,1.9,6.4,1.9c3,0,5.4-0.9,7.3-2.6c1.9-1.7,3.3-3.9,4.1-6.6h7.1c-0.5,2.8-1.7,5.4-3.4,7.8
				c-1.7,2.4-3.8,4.3-6.4,5.8c-2.6,1.5-5.5,2.2-8.7,2.2C975.7,961.4,972.4,960.4,969.3,958.5z"/>
			<path class="st5" d="M1013.6,958.5c-3-1.9-5.5-4.5-7.3-7.8c-1.8-3.3-2.7-7-2.7-10.9c0-4,0.9-7.6,2.7-10.9s4.2-5.9,7.3-7.8
				s6.4-2.8,10-2.8c3.6,0,6.9,0.9,9.9,2.8c3.1,1.9,5.5,4.5,7.3,7.8s2.7,6.9,2.7,10.9c0,4-0.9,7.6-2.7,10.9c-1.8,3.3-4.2,5.9-7.3,7.8
				c-3.1,1.9-6.4,2.8-9.9,2.8C1019.9,961.4,1016.6,960.4,1013.6,958.5z M1029.9,952.8c2-1.3,3.5-3,4.7-5.3c1.1-2.3,1.7-4.9,1.7-7.8
				s-0.6-5.5-1.7-7.7c-1.1-2.2-2.7-4-4.7-5.2s-4.1-1.9-6.4-1.9c-2.3,0-4.4,0.6-6.4,1.9s-3.5,3-4.7,5.2s-1.8,4.8-1.8,7.7
				s0.6,5.5,1.8,7.8c1.2,2.3,2.7,4,4.7,5.3c1.9,1.3,4.1,1.9,6.4,1.9C1025.8,954.7,1027.9,954.1,1029.9,952.8z"/>
			<path class="st5" d="M1100.5,920.4c2.1,1.4,3.8,3.3,5,5.9c1.2,2.6,1.8,5.6,1.8,9.1v25.1h-7.1v-24.9c0-3.3-0.8-5.9-2.3-7.8
				s-3.6-2.8-6-2.8c-2.5,0-4.5,1-6.2,2.9c-1.7,1.9-2.5,4.5-2.5,7.7v24.9h-7.1v-24.9c0-3.3-0.8-5.9-2.3-7.8c-1.6-1.9-3.6-2.8-6-2.8
				c-2.5,0-4.5,1-6.2,2.9s-2.5,4.5-2.5,7.7v24.9h-7.1v-41.2h5.2l1.6,5.2h0.4c0.9-1.5,2.2-2.9,3.9-4.1c1.7-1.3,3.8-1.9,6.2-1.9
				c3,0,5.5,0.8,7.5,2.3s3.4,3.2,4.3,5.1c1.1-1.9,2.7-3.6,4.8-5.1s4.6-2.3,7.5-2.3C1096,918.3,1098.3,919,1100.5,920.4z"/>
			<path class="st5" d="M1166.5,920.4c2.1,1.4,3.8,3.3,5,5.9c1.2,2.6,1.8,5.6,1.8,9.1v25.1h-7.1v-24.9c0-3.3-0.8-5.9-2.3-7.8
				s-3.6-2.8-6-2.8s-4.5,1-6.2,2.9c-1.7,1.9-2.5,4.5-2.5,7.7v24.9h-7.1v-24.9c0-3.3-0.8-5.9-2.3-7.8s-3.6-2.8-6-2.8s-4.5,1-6.2,2.9
				s-2.5,4.5-2.5,7.7v24.9h-7.1v-41.2h5.2l1.6,5.2h0.4c0.9-1.5,2.2-2.9,3.9-4.1c1.7-1.3,3.8-1.9,6.2-1.9c3,0,5.5,0.8,7.5,2.3
				s3.4,3.2,4.3,5.1c1.1-1.9,2.7-3.6,4.8-5.1s4.6-2.3,7.5-2.3C1162,918.3,1164.3,919,1166.5,920.4z"/>
			<path class="st5" d="M1220,942.9h-31.3c0.5,3.7,2,6.6,4.3,8.8c2.3,2.1,5.1,3.2,8.5,3.2c4.5,0,7.9-1.8,10.2-5.5h7.3
				c-1.3,3.3-3.6,6.2-6.7,8.5c-3.2,2.3-6.8,3.5-10.8,3.5c-3.7,0-7-0.9-10.1-2.8c-3.1-1.9-5.5-4.4-7.2-7.7c-1.8-3.3-2.6-7-2.6-11.1
				c0-4,0.9-7.6,2.7-10.9s4.2-5.9,7.3-7.8s6.3-2.8,9.9-2.8c3.6,0,6.8,0.9,9.7,2.7c2.9,1.8,5.2,4.3,6.8,7.4s2.5,6.6,2.5,10.4
				C1220.3,940.7,1220.2,942,1220,942.9z M1193,928.2c-2.4,2.3-3.8,5.2-4.4,8.9h24.8c-0.4-3.6-1.8-6.6-4-8.9s-4.9-3.4-8.2-3.4
				C1198.1,924.8,1195.4,925.9,1193,928.2z"/>
			<path class="st5" d="M1228.9,960.5v-41.2h5.2l1.6,5.2h0.4c1-1.5,2.4-2.9,4.3-4.1c1.9-1.3,4-1.9,6.3-1.9c1.3,0,2.4,0.1,3.2,0.3
				v7.1c-0.9-0.3-1.9-0.4-3.2-0.4c-3.2,0-5.8,1.1-7.8,3.2s-3,5-3,8.7v23.2H1228.9z"/>
			<path class="st5" d="M1263,958.5c-3-1.9-5.5-4.5-7.3-7.8c-1.8-3.3-2.7-7-2.7-10.9c0-4,0.9-7.6,2.7-10.9s4.2-5.9,7.3-7.8
				s6.4-2.8,10-2.8c3.2,0,6.1,0.7,8.6,2.2s4.7,3.4,6.4,5.8s2.8,5,3.4,7.8h-7.1c-0.8-2.7-2.1-4.9-4.1-6.6c-1.9-1.7-4.4-2.6-7.3-2.6
				c-2.3,0-4.4,0.6-6.4,1.9s-3.5,3-4.7,5.2s-1.8,4.8-1.8,7.7s0.6,5.5,1.8,7.8c1.2,2.3,2.7,4,4.7,5.3c1.9,1.3,4.1,1.9,6.4,1.9
				c2.9,0,5.4-0.9,7.3-2.6s3.3-3.9,4.1-6.6h7.1c-0.5,2.8-1.7,5.4-3.4,7.8c-1.7,2.4-3.8,4.3-6.4,5.8s-5.5,2.2-8.6,2.2
				C1269.4,961.4,1266.1,960.4,1263,958.5z"/>
			<path class="st5" d="M1335.8,942.9h-31.3c0.5,3.7,2,6.6,4.3,8.8c2.3,2.1,5.1,3.2,8.5,3.2c4.5,0,7.9-1.8,10.2-5.5h7.3
				c-1.3,3.3-3.6,6.2-6.7,8.5c-3.2,2.3-6.8,3.5-10.8,3.5c-3.7,0-7-0.9-10.1-2.8c-3.1-1.9-5.5-4.4-7.2-7.7c-1.8-3.3-2.6-7-2.6-11.1
				c0-4,0.9-7.6,2.7-10.9s4.2-5.9,7.3-7.8s6.3-2.8,9.9-2.8c3.6,0,6.8,0.9,9.7,2.7c2.9,1.8,5.2,4.3,6.8,7.4s2.5,6.6,2.5,10.4
				C1336.2,940.7,1336,942,1335.8,942.9z M1308.8,928.2c-2.4,2.3-3.8,5.2-4.4,8.9h24.8c-0.4-3.6-1.8-6.6-4-8.9s-4.9-3.4-8.2-3.4
				C1314,924.8,1311.2,925.9,1308.8,928.2z"/>
		</g>
	</g>
</g>
<g id="Logo_RGB">
</g>
</svg>
