<?xml version="1.0" standalone="no"?>
<!DOCTYPE svg PUBLIC "-//W3C//DTD SVG 20010904//EN"
 "http://www.w3.org/TR/2001/REC-SVG-20010904/DTD/svg10.dtd">
<svg version="1.0" xmlns="http://www.w3.org/2000/svg"
 width="512.000000pt" height="512.000000pt" viewBox="0 0 512.000000 512.000000"
 preserveAspectRatio="xMidYMid meet">
<metadata>
Created by potrace 1.14, written by Peter Selinger 2001-2017
</metadata>
<g transform="translate(0.000000,512.000000) scale(0.100000,-0.100000)"
fill="#000000" stroke="none">
<path d="M2325 5114 c-16 -2 -80 -11 -142 -20 -422 -57 -875 -255 -1228 -534
-103 -81 -314 -292 -395 -395 -227 -286 -405 -649 -490 -997 -55 -223 -65
-319 -65 -608 0 -289 10 -385 65 -608 85 -348 263 -711 490 -997 81 -103 292
-314 395 -395 286 -227 649 -405 997 -490 223 -55 319 -65 608 -65 289 0 385
10 608 65 348 85 711 263 997 490 103 81 314 292 395 395 227 286 405 649 490
997 55 223 65 319 65 608 0 289 -10 385 -65 608 -85 348 -263 711 -490 997
-81 103 -292 314 -395 395 -349 276 -776 464 -1220 536 -95 15 -545 28 -620
18z m-900 -1659 c134 -35 218 -98 264 -195 21 -45 26 -69 26 -135 -1 -103 -25
-155 -108 -231 l-62 -56 25 -17 c54 -35 123 -108 148 -156 34 -66 43 -216 18
-293 -79 -238 -435 -342 -804 -236 -202 58 -351 163 -325 230 6 17 8 17 138 1
18 -2 21 6 26 95 13 188 89 466 170 619 38 70 99 129 134 129 23 0 25 -4 26
-47 2 -111 -4 -159 -46 -368 -42 -209 -73 -490 -57 -506 13 -13 114 -29 182
-29 123 0 220 54 261 144 13 29 19 65 19 122 0 90 -17 158 -52 210 -22 34 -25
35 -69 30 -95 -12 -199 27 -199 75 0 60 46 82 164 82 l88 -1 24 52 c18 38 24
68 24 119 0 152 -84 217 -279 217 -110 0 -188 -19 -310 -75 -147 -67 -189 -56
-120 31 76 97 192 164 344 200 75 17 265 12 350 -11z m1181 -16 c58 -35 79
-120 53 -214 -22 -78 -108 -197 -284 -390 -50 -55 -117 -131 -149 -170 l-59
-69 6 -77 c6 -86 22 -124 69 -164 29 -25 38 -27 97 -23 78 5 138 32 199 87 36
33 42 44 42 79 0 164 107 349 250 430 147 84 380 79 483 -10 30 -26 31 -29 15
-41 -11 -9 -57 -16 -115 -20 -112 -7 -165 -23 -228 -68 -109 -78 -169 -242
-133 -362 27 -91 127 -141 233 -117 26 6 56 15 66 21 17 9 15 13 -20 44 -84
76 -113 234 -59 325 33 57 52 74 113 101 38 17 61 20 107 16 115 -10 165 -83
156 -225 -3 -42 -13 -94 -21 -115 l-16 -37 30 0 c32 0 99 30 115 52 6 7 16 38
23 68 39 180 185 345 357 404 61 21 170 21 253 0 62 -16 66 -16 76 1 49 85
118 68 179 -45 25 -47 28 -58 22 -111 -8 -64 -64 -295 -120 -484 -19 -66 -33
-121 -31 -124 13 -13 132 106 267 269 33 39 62 65 74 65 30 0 25 -104 -9 -171
-67 -132 -217 -278 -363 -352 -33 -17 -43 -29 -53 -64 -21 -69 -68 -166 -101
-208 -18 -22 -55 -51 -88 -67 -51 -25 -68 -28 -157 -28 -111 0 -162 16 -222
71 -57 53 -84 136 -63 199 21 65 88 94 310 135 172 32 157 25 171 86 7 30 10
57 7 60 -3 3 -22 -6 -42 -20 -63 -43 -129 -59 -220 -54 -119 7 -202 58 -243
149 l-16 37 -45 -20 c-37 -17 -60 -20 -126 -16 l-81 5 -51 -46 c-101 -92 -230
-131 -371 -111 -107 15 -164 42 -228 112 l-55 60 -46 -45 c-25 -25 -73 -60
-107 -78 -60 -33 -66 -34 -172 -34 -100 0 -116 3 -173 29 -67 31 -118 80 -154
148 -44 85 -35 350 18 551 54 199 160 397 266 492 112 101 274 138 364 84z"/>
<path d="M2414 3281 c-84 -51 -170 -220 -209 -408 -9 -43 8 -42 34 1 12 19 64
87 116 152 52 64 101 132 110 150 20 43 23 103 4 115 -19 12 -20 12 -55 -10z"/>
<path d="M4145 2851 c-92 -33 -140 -63 -211 -135 -88 -88 -114 -148 -114 -262
0 -129 46 -173 151 -144 47 13 115 72 141 123 17 35 118 399 118 428 0 14 -30
10 -85 -10z"/>
<path d="M3266 2658 c-21 -30 -20 -86 2 -127 24 -44 34 -44 48 4 19 61 17 109
-4 128 -24 22 -28 21 -46 -5z"/>
<path d="M3866 1900 c-54 -10 -103 -23 -109 -29 -19 -19 2 -60 43 -81 53 -27
92 -25 128 5 26 22 82 103 82 119 0 9 -37 6 -144 -14z"/>
</g>
</svg>
